<svg width="18" height="20" viewBox="0 0 18 20" fill="none" xmlns="http://www.w3.org/2000/svg">
<path d="M17.8333 17.5905C17.8333 17.1028 17.4405 16.7072 16.9579 16.7072H16.9308V10.5783C16.9308 9.63506 16.1635 8.86579 15.2176 8.86579H10.2109V4.89359C10.2109 4.64159 10.0754 4.40578 9.85591 4.28117L8.68485 3.60664C8.46275 3.47912 8.18874 3.47646 7.97195 3.60386C7.75781 3.72846 7.62518 3.96414 7.62518 4.22159V8.86844H2.61014C1.6669 8.86844 0.897041 9.63506 0.897041 10.581V11.8219C0.894386 11.8406 0.894386 11.8597 0.894386 11.8788C0.894386 11.8978 0.897041 11.9165 0.897041 11.9356V16.7125H0.875535C0.392829 16.7125 0 17.1081 0 17.5958V18.4249C0 18.9126 0.392829 19.3083 0.875535 19.3083H16.955C17.4375 19.3083 17.8306 18.9126 17.8306 18.4249V17.5905H17.8333ZM0.924389 18.3815V17.6283H16.9143V18.3815H0.924389ZM9.2893 5.80951L8.544 5.37862V4.58732L9.2893 5.01528V5.80951ZM8.54665 6.00458L9.29195 6.43534V7.51899L8.54665 7.0881V6.00458ZM8.54665 7.71671L9.29195 8.1476V8.86844H8.54665V7.71671ZM2.61014 9.78966H15.2176C15.654 9.78966 16.0091 10.1445 16.0091 10.581V11.4857C15.6785 11.5808 15.3801 11.7732 15.1524 12.0468L14.6727 12.6294C14.5181 12.8161 14.2904 12.9191 14.0465 12.9137C13.8081 12.9084 13.5966 12.8056 13.4502 12.6237C13.4475 12.6184 13.4422 12.613 13.4392 12.6076L12.8972 11.8978C12.5745 11.4778 12.0922 11.2311 11.569 11.2203C11.0459 11.2094 10.5524 11.437 10.2138 11.8463L9.57114 12.6294C9.41661 12.8161 9.18893 12.9191 8.94519 12.9137C8.70105 12.9084 8.47616 12.7972 8.32973 12.6076L7.79843 11.9004C7.79843 11.9004 7.79843 11.9004 7.79843 11.8978C7.79843 11.8978 7.79843 11.8978 7.79843 11.895C7.48141 11.4804 6.98251 11.2284 6.46236 11.2177C5.94448 11.2068 5.45394 11.4344 5.11488 11.8436L4.43449 12.67C4.28541 12.8512 4.06052 12.9546 3.82195 12.9546C3.82195 12.9546 3.82195 12.9546 3.8193 12.9546C3.58352 12.9546 3.36102 12.8486 3.20941 12.6619L2.69139 12.0331C2.46371 11.7567 2.16288 11.5644 1.82674 11.4697V10.5701C1.81878 10.1445 2.1739 9.78966 2.61014 9.78966ZM1.81878 12.4857C1.87573 12.5264 1.92711 12.5723 1.97317 12.6267L2.49093 13.2551C2.81897 13.6534 3.29875 13.881 3.8112 13.881H3.81385C4.32882 13.881 4.8086 13.6561 5.13386 13.2634L5.81424 12.4342C5.97143 12.2444 6.1991 12.1362 6.43501 12.1414C6.67623 12.1471 6.90936 12.2635 7.05579 12.4559L7.58695 13.1631V13.1684C7.90424 13.583 8.38947 13.8269 8.91532 13.8376H8.9505C9.4656 13.8376 9.94525 13.613 10.2706 13.2199L10.9131 12.4368C11.0677 12.2501 11.3034 12.1389 11.5391 12.1441C11.7806 12.1498 12.0027 12.2635 12.1545 12.4586L12.6775 13.144C12.6832 13.1522 12.6885 13.1631 12.6966 13.1712C13.0138 13.5858 13.4936 13.8269 14.0167 13.8376H14.052C14.5671 13.8376 15.0469 13.613 15.3721 13.2199L15.8519 12.6375C15.8953 12.5832 15.9468 12.5371 15.9983 12.4993V16.7125H1.81878V12.4857Z" fill="white"/>
<path d="M8.9939 3.30045C9.06984 3.30045 9.14843 3.28134 9.21892 3.2406C9.44116 3.11586 9.51962 2.83427 9.39522 2.61464C9.30017 2.44677 9.27853 2.23272 9.33801 2.04044C9.38686 1.88027 9.48444 1.75858 9.61202 1.69342C9.88576 1.56881 10.1352 1.40068 10.3491 1.19486C10.4549 1.40904 10.4955 1.65268 10.4603 1.89672C10.4033 2.30319 10.146 2.64994 9.77186 2.82073C9.54126 2.92649 9.43837 3.20013 9.54418 3.43037C9.6229 3.59823 9.78805 3.69856 9.96436 3.69856C10.0294 3.69856 10.0943 3.68516 10.1569 3.6553C10.8183 3.35181 11.2736 2.7419 11.374 2.02133C11.4742 1.29783 11.2084 0.585219 10.6554 0.113859C10.6527 0.111072 10.6527 0.111072 10.65 0.108285C10.6447 0.102977 10.6366 0.0976692 10.6311 0.0948825C10.6258 0.0895744 10.6175 0.0838681 10.6122 0.0812141C10.6096 0.0812141 10.6096 0.07856 10.6066 0.075906C10.604 0.0731192 10.5985 0.0704652 10.5959 0.0704652C10.5879 0.0651571 10.5796 0.0622376 10.5715 0.0569295C10.5661 0.0542754 10.5607 0.0516214 10.5523 0.0487019C10.5444 0.0460479 10.5363 0.0408724 10.528 0.037953C10.5201 0.0351662 10.5146 0.0325122 10.5063 0.0298581C10.4983 0.0270714 10.4929 0.0244173 10.4849 0.0217633C10.4767 0.0191092 10.4684 0.0164551 10.4603 0.0164551C10.4549 0.0136684 10.4468 0.0136684 10.4415 0.0107489C10.4334 0.00809486 10.425 0.00809486 10.4169 0.00530811C10.4116 0.00530811 10.4033 0.00265405 10.3979 0.00265405C10.3898 0.00265405 10.3817 0.00265405 10.3709 0C10.3655 0 10.3573 0 10.3519 0C10.3438 0 10.3357 0 10.3276 0C10.322 0 10.3139 0 10.3086 0.00265405C10.3004 0.00265405 10.2924 0.00530811 10.2843 0.00530811C10.2759 0.00530811 10.2706 0.00809486 10.2625 0.00809486C10.2542 0.0107489 10.249 0.0107489 10.2408 0.0136684C10.2327 0.0164551 10.2272 0.0164551 10.2191 0.0191092C10.2109 0.0217633 10.2056 0.0244173 10.2 0.0244173C10.192 0.0270714 10.1866 0.0298581 10.1782 0.0325122C10.1729 0.0351662 10.1648 0.037953 10.1595 0.0408724C10.1513 0.0433938 10.146 0.0460479 10.1379 0.0516214C10.1326 0.0542754 10.1242 0.0595835 10.1188 0.0622376C10.1134 0.0651571 10.1053 0.0704652 10.0996 0.0731192C10.0943 0.07856 10.0862 0.0812141 10.0809 0.0867876C10.0753 0.0922284 10.07 0.0948825 10.0645 0.100323C10.0566 0.105631 10.0509 0.111072 10.0456 0.116513C10.0402 0.122087 10.0348 0.124741 10.0322 0.130049C10.0265 0.135489 10.0184 0.143717 10.0131 0.149025C10.0104 0.151679 10.0078 0.154466 10.005 0.15712C10.0023 0.159774 10.0023 0.159774 9.99954 0.162428C9.99409 0.168134 9.98878 0.176229 9.98321 0.181537C9.9779 0.186845 9.97232 0.195073 9.96967 0.200647C9.96967 0.203301 9.96701 0.203301 9.96436 0.205955C9.78274 0.487683 9.52254 0.709827 9.21613 0.848236C9.21335 0.85089 9.21069 0.85089 9.20804 0.853544C9.20538 0.856198 9.20273 0.856198 9.19715 0.858985C8.8395 1.03774 8.57638 1.35768 8.45159 1.76123C8.31896 2.19477 8.36768 2.66613 8.5874 3.05641C8.67395 3.21353 8.83127 3.30045 8.9939 3.30045Z" fill="white"/>
</svg>
