<svg width="129" height="64" viewBox="0 0 129 64" fill="none" xmlns="http://www.w3.org/2000/svg">
<mask id="mask0_624_177" style="mask-type:alpha" maskUnits="userSpaceOnUse" x="0" y="0" width="129" height="64">
<path d="M127.27 8.65991C124.601 10.6545 121.53 12.0453 118.27 12.736C115.01 13.4266 111.639 13.4007 108.39 12.6599C105.223 12.0171 102.248 10.6478 99.7001 8.65991C99.2542 8.26319 98.855 7.81703 98.5101 7.32995C100.03 5.27995 100.51 2.52996 98.6001 0.399961C98.4984 0.298898 98.3714 0.227015 98.2324 0.191831C98.0935 0.156647 97.9476 0.159442 97.8101 0.199949C94.8601 1.36995 95.1201 4.61992 96.3701 7.04992C96.4063 7.12203 96.4463 7.19215 96.4901 7.25995C94.9001 8.66995 92.6501 9.15991 90.6501 9.65991C86.8142 10.5551 83.1289 12.0036 79.7101 13.96C76.3142 15.9477 73.2476 18.4509 70.6201 21.3799C69.5905 22.4948 68.6541 23.6921 67.8201 24.9599C66.5901 24.0999 65.2801 23.3699 64.1101 22.6899C60.4194 20.5428 56.5717 18.6775 52.6001 17.1099C47.8431 15.3625 42.9841 13.9065 38.0501 12.7499C35.2901 12.0199 31.9001 10.6299 29.9101 8.35992C30.3388 7.85137 30.6771 7.273 30.9101 6.64996C31.8101 4.22996 30.0501 1.38995 27.3301 1.88995C27.1943 1.9228 27.0702 1.99245 26.9714 2.09124C26.8726 2.19004 26.803 2.31415 26.7701 2.44995C26.4341 4.39303 26.8105 6.39209 27.8301 8.07995C27.1375 8.62243 26.3861 9.08534 25.5901 9.45996C23.23 10.5444 20.6447 11.0484 18.0501 10.9299C12.9601 10.8099 8.05011 9.06994 3.34011 7.18994C2.34011 6.79994 1.96006 8.35993 2.91006 8.73993C9.31006 11.3199 16.7601 13.83 23.6801 11.89C25.5218 11.4089 27.2535 10.577 28.7801 9.43994C29.9089 10.7822 31.3098 11.8695 32.8901 12.6299C35.2392 13.672 37.6979 14.4469 40.2201 14.9399C42.8901 15.5799 45.5401 16.31 48.1401 17.18C53.4968 18.9789 58.654 21.3246 63.5301 24.18C64.6501 24.83 65.8801 25.51 67.0001 26.3C66.416 27.4201 65.9983 28.6193 65.7601 29.8599C65.4472 31.278 65.5621 32.7571 66.0901 34.1099C66.5101 35.0599 67.3901 36.42 68.5401 36.41C71.4301 36.41 72.6301 32.4099 72.0401 30.1099C71.5265 28.4379 70.5061 26.9668 69.1201 25.9C69.7234 24.9643 70.3918 24.072 71.1201 23.2299C74.2958 19.5019 78.1812 16.4426 82.5501 14.2299C84.8085 13.0858 87.1817 12.1841 89.6301 11.5399C91.8461 11.1177 94.0021 10.4259 96.0501 9.47992C96.5345 9.21517 96.9874 8.89652 97.4001 8.52997C99.4001 10.94 102.47 12.4499 105.3 13.4399C109.162 14.7803 113.295 15.1457 117.332 14.5037C121.369 13.8617 125.185 12.2322 128.44 9.75995C129.23 9.16995 128.08 7.99991 127.27 8.65991ZM28.9201 6.91992C28.3586 5.83706 28.129 4.61267 28.2601 3.39996C29.9001 3.45996 29.6001 5.71992 28.9201 6.91992ZM69.8201 29.1199C71.0001 30.9599 70.8901 34.12 68.5401 34.8C66.4301 32.8 67.0201 29.95 68.3201 27.39C68.8957 27.8965 69.4002 28.4784 69.8201 29.1199ZM97.8201 1.98993C98.1392 2.59339 98.2916 3.27102 98.2617 3.953C98.2319 4.63499 98.0208 5.29668 97.6501 5.86993C96.8701 4.40993 96.5801 2.79994 97.7801 1.99994L97.8201 1.98993Z" fill="#E5E5E5"/>
<path d="M125.58 37.41C121.389 41.3966 116.009 43.901 110.26 44.54C109.096 44.6833 107.923 44.7467 106.75 44.73C106.826 42.9564 106.242 41.2175 105.11 39.85C104.686 39.3165 104.156 38.8766 103.554 38.5582C102.951 38.2398 102.29 38.0497 101.61 38C100.13 38 99.53 40 99.56 41.13C99.63 44.13 102.14 45.53 104.86 46.05C104.821 46.2164 104.77 46.3801 104.71 46.54C103.9 48.77 101.54 50.18 99.29 50.86C93.81 52.52 87.29 51.45 81.98 49.8C74.68 47.52 66.25 42.05 58.3 43.4C57.7446 42.1637 57.075 40.9819 56.3 39.87C53.8131 36.3776 50.4361 33.6152 46.52 31.87C42.7291 30.0898 38.5176 29.3996 34.3568 29.8765C30.196 30.3533 26.2499 31.9783 22.96 34.5699C21.3927 33.7428 19.7056 33.1659 17.96 32.86C15.8134 32.432 13.6018 32.4491 11.4621 32.91C9.32236 33.371 7.29998 34.2662 5.52002 35.54C3.90426 36.7888 2.58486 38.3795 1.65643 40.1984C0.728007 42.0172 0.213574 44.019 0.150023 46.0601C0.121233 48.0708 0.602881 50.056 1.54999 51.83C2.02999 52.76 3.49001 51.94 3.01001 51.02C2.09474 49.1294 1.72409 47.0211 1.93957 44.9316C2.15505 42.8422 2.94812 40.854 4.22998 39.1899C5.61247 37.4228 7.42199 36.0367 9.4881 35.162C11.5542 34.2873 13.8089 33.9527 16.04 34.1899C17.979 34.3344 19.8728 34.8468 21.62 35.6999C15.7 41.2999 12.4 50.4699 15.62 58.08C17.2 61.77 21.01 64.6301 25.29 62.93C29.29 61.31 31.56 56.99 32.1 53.05C32.566 49.6907 32.0956 46.2678 30.7405 43.1588C29.3854 40.0498 27.1981 37.3753 24.42 35.43C26.596 33.7428 29.0937 32.5177 31.76 31.83C40.13 29.71 49.48 33.51 54.41 40.14C55.257 41.2806 55.9874 42.5035 56.59 43.79C55.251 44.1903 53.98 44.7903 52.82 45.5699C49.82 47.5699 46.76 52.47 50.26 55.35C53.43 57.96 58.02 55.35 59.13 52.11C59.808 49.7903 59.7168 47.3136 58.87 45.05C61.1429 44.7516 63.4512 44.8736 65.68 45.41C71 46.65 75.68 49.47 80.88 51.16C85.7704 52.842 90.9547 53.4989 96.11 53.09C99.75 52.72 103.86 51.38 105.75 48.14C106.086 47.5524 106.336 46.9192 106.49 46.26C107.01 46.26 107.49 46.26 108.02 46.26C112.635 46.1288 117.15 44.8834 121.18 42.63C123.191 41.4931 125.052 40.109 126.72 38.51C127.55 37.82 126.35 36.67 125.58 37.41ZM30.29 54C29.45 57.92 25.29 63.84 20.36 61.21C16.47 59.13 15.86 53.5801 16.24 49.8101C16.8428 44.6876 19.301 39.9633 23.15 36.53C25.9529 38.392 28.1319 41.0527 29.405 44.1676C30.678 47.2824 30.9863 50.7079 30.29 54ZM57.13 52.59C56.13 54.38 52.98 55.7099 51.23 53.9399C49.23 51.9399 51.52 48.64 53.29 47.27C54.4833 46.3763 55.8433 45.7303 57.29 45.37C58.15 47.84 58.37 50.46 57.13 52.6V52.59ZM102.21 43.1999C101.64 42.6499 100.45 40.2 101.73 39.6C102.34 39.34 103.65 40.65 103.95 41.04C104.709 42.0497 105.1 43.2878 105.06 44.55C103.998 44.3971 103.005 43.9304 102.21 43.21V43.1999Z" fill="#E5E5E5"/>
</mask>
<g mask="url(#mask0_624_177)">
<rect x="22" width="107" height="63" fill="#E5E5E5"/>
</g>
</svg>
