<svg width="20" height="20" viewBox="0 0 20 20" fill="none" xmlns="http://www.w3.org/2000/svg">
<g clip-path="url(#clip0_624_241)">
<path d="M15.7782 0V1.22449H17.1594L14.4648 3.77953C13.5109 2.80336 12.1807 2.19633 10.7112 2.19633C8.73453 2.19633 7.00968 3.29445 6.11406 4.91254C6.03734 4.90918 5.96023 4.90715 5.88265 4.90715C2.98742 4.90715 0.631989 7.26258 0.631989 10.1579C0.631989 12.846 2.66261 15.0684 5.27039 15.3726V16.9998H3.4373V18.2243H5.27047V20H6.49496V18.2243H8.40812V16.9998H6.49496V15.3726C8.21168 15.1723 9.67808 14.1408 10.4798 12.6923C10.5566 12.6956 10.6336 12.6977 10.7112 12.6977C13.6064 12.6977 15.9619 10.3422 15.9619 7.44699C15.9619 6.46313 15.6896 5.54176 15.2169 4.75387L18.1434 1.97895V3.49977H19.3679V0H15.7782ZM5.88273 14.184C3.66269 14.184 1.85656 12.3779 1.85656 10.1578C1.85656 8.02422 3.52472 6.27332 5.62519 6.14008C5.51773 6.55805 5.46054 6.99594 5.46054 7.44699C5.46054 9.80887 7.0282 11.8113 9.17761 12.4689C8.44847 13.5054 7.24343 14.184 5.88273 14.184ZM9.72828 11.3516C7.98183 10.9117 6.68507 9.32805 6.68507 7.44699C6.68507 7.03152 6.74836 6.63055 6.86574 6.2532C8.61218 6.69305 9.90894 8.27676 9.90894 10.1578C9.90894 10.5733 9.84562 10.9742 9.72828 11.3516ZM10.9688 11.4646C11.0762 11.0467 11.1334 10.6088 11.1334 10.1578C11.1334 7.7959 9.56578 5.79348 7.4164 5.13578C8.14554 4.09937 9.35062 3.42074 10.7113 3.42074C12.9314 3.42074 14.7375 5.22687 14.7375 7.44695C14.7374 9.58051 13.0693 11.3314 10.9688 11.4646Z" fill="white"/>
</g>
<defs>
<clipPath id="clip0_624_241">
<rect width="20" height="20" fill="white"/>
</clipPath>
</defs>
</svg>
