<svg width="16" height="20" viewBox="0 0 16 20" fill="none" xmlns="http://www.w3.org/2000/svg">
<path d="M7.52915 19.6411C7.66172 19.7645 7.83086 19.8285 8 19.8285C8.16915 19.8285 8.33829 19.7645 8.47086 19.6411C8.77715 19.3485 16 12.4548 16 8.17138C16 3.75996 12.4114 0.171387 8 0.171387C3.58858 0.171387 7.62939e-06 3.75996 7.62939e-06 8.17138C7.62939e-06 12.4548 7.22286 19.3485 7.52915 19.6411ZM8 1.54281C11.6571 1.54281 14.6286 4.51424 14.6286 8.17138C14.6286 11.0194 10.2126 15.9885 8 18.1874C5.78743 15.9885 1.37144 11.024 1.37144 8.17138C1.37144 4.51424 4.34286 1.54281 8 1.54281Z" fill="white"/>
<path d="M11.4286 8.17137C11.4286 6.2788 9.89257 4.7428 8 4.7428C6.10743 4.7428 4.57143 6.2788 4.57143 8.17137C4.57143 10.0639 6.10743 11.5999 8 11.5999C9.89257 11.5999 11.4286 10.0639 11.4286 8.17137ZM5.94286 8.17137C5.94286 7.03765 6.86629 6.11423 8 6.11423C9.13372 6.11423 10.0571 7.03765 10.0571 8.17137C10.0571 9.30508 9.13372 10.2285 8 10.2285C6.86629 10.2285 5.94286 9.30508 5.94286 8.17137Z" fill="white"/>
</svg>
