<svg width="28" height="28" viewBox="0 0 28 28" fill="none" xmlns="http://www.w3.org/2000/svg">
<path d="M27.6471 26.0043L19.6135 17.9584C21.1973 16.0574 22.1498 13.6281 22.1498 10.9749C22.1498 4.92175 17.1862 0 11.0806 0C4.9751 0 0 4.92749 0 10.9806C0 17.0337 4.96362 21.9555 11.0692 21.9555C13.6629 21.9555 16.05 21.0653 17.9436 19.5779L26.0059 27.6468C26.4765 28.1177 27.1766 28.1177 27.6471 27.6468C28.1176 27.1759 28.1176 26.4752 27.6471 26.0043ZM2.3527 10.9806C2.3527 6.22541 6.26622 2.36037 11.0692 2.36037C15.8721 2.36037 19.7856 6.22541 19.7856 10.9806C19.7856 15.7358 15.8721 19.6009 11.0692 19.6009C6.26622 19.6009 2.3527 15.7301 2.3527 10.9806Z" fill="#878787"/>
</svg>
