<svg width="54" height="72" viewBox="0 0 54 72" fill="none" xmlns="http://www.w3.org/2000/svg">
<path d="M4.77361 12.766C5.20354 12.766 5.59439 12.6096 5.8876 12.3164C6.10263 12.1014 11.2423 7.05943 18.9618 4.55798C29.2607 1.19666 39.0127 3.79576 47.9046 12.2383C48.5299 12.8441 49.5267 12.8051 50.1324 12.1796C50.4256 11.8669 50.582 11.476 50.5624 11.0656C50.5428 10.6551 50.3866 10.2643 50.0737 9.9712C44.68 4.87053 38.9149 1.68503 32.8957 0.512477C28.0686 -0.425564 23.0852 -0.0737987 18.0823 1.5483C9.58107 4.30386 3.91374 9.87355 3.67923 10.1081C3.38602 10.4013 3.21021 10.7921 3.21021 11.2221C3.21021 11.652 3.36655 12.0428 3.65975 12.336C3.95269 12.59 4.34367 12.766 4.77361 12.766Z" fill="#5982AB"/>
<path d="M53.7477 33.2467C52.1452 22.9281 48.0802 15.5214 41.6507 11.2612C32.3092 5.06611 21.2676 7.74351 20.8181 7.86076C19.9777 8.05619 19.4501 8.91606 19.665 9.75645C19.8604 10.5968 20.7203 11.1244 21.5607 10.9095C21.9711 10.8117 31.6252 8.46664 39.8332 13.8996C45.5592 17.6909 49.2137 24.3549 50.6598 33.716C50.7185 34.1265 50.953 34.4977 51.2852 34.7518C51.5588 34.9472 51.8715 35.0645 52.2038 35.0645C52.2819 35.0645 52.3601 35.0645 52.4383 35.0449C53.2787 34.9079 53.8844 34.1066 53.7477 33.2467Z" fill="#5982AB"/>
<path d="M3.386 33.2663C4.79307 16.8113 15.7175 13.0199 16.1866 12.8636C16.5774 12.7267 16.9097 12.4531 17.0855 12.0819C17.2809 11.7105 17.3006 11.2806 17.1637 10.8897C16.8901 10.069 15.9911 9.61941 15.1704 9.893C14.6232 10.069 1.8226 14.505 0.239721 33.0122C0.200636 33.4226 0.3375 33.8329 0.611095 34.1652C0.884691 34.4779 1.25607 34.6733 1.686 34.7124H1.82286C2.19424 34.7124 2.54601 34.5756 2.83908 34.341C3.15149 34.0675 3.34692 33.6766 3.386 33.2663Z" fill="#5982AB"/>
<path d="M9.93281 33.149C10.4409 29.1428 12.063 25.3124 14.5254 22.3419C16.2842 20.2314 18.4535 18.5898 20.7986 17.5736C23.3 16.4987 25.9774 16.1274 28.7525 16.4596C32.6219 16.9482 36.4914 18.7852 40.3022 21.9511C40.9666 22.4983 41.9634 22.4201 42.5105 21.7557C42.7841 21.443 42.9014 21.0325 42.8623 20.6026C42.8232 20.1727 42.6278 19.8013 42.2955 19.5473C38.0156 15.9906 33.599 13.8994 29.1237 13.3523C25.8015 12.9418 22.5769 13.3913 19.5477 14.7008C16.7531 15.9124 14.1735 17.8666 12.102 20.3486C9.24876 23.7686 7.37267 28.1852 6.80587 32.7778C6.39541 36.0415 5.88731 38.8165 5.28156 41.0053C4.49985 43.839 3.58129 45.7151 2.58469 46.5554C2.27201 46.8289 2.05697 47.2003 2.01789 47.6303C1.9788 48.0407 2.11567 48.451 2.36965 48.7833C2.68233 49.1547 3.13188 49.3501 3.58129 49.3501C3.93306 49.3501 4.30443 49.2329 4.5975 48.9788C6.10234 47.728 7.35307 45.3242 8.31058 41.8457C8.95569 39.4808 9.50288 36.5494 9.93281 33.149Z" fill="#5982AB"/>
<path d="M41.4944 38.8946V38.8751C41.338 37.4484 41.1817 35.9632 41.0448 34.693C40.9862 34.1849 40.9472 33.8722 40.9079 33.5595C40.478 29.6314 40.0481 25.8987 36.6281 22.8501C34.7129 21.1303 32.1918 19.9578 29.5341 19.5082C27.3453 19.1565 25.0978 19.2932 23.0654 19.9578C20.7985 20.6809 18.8246 21.9707 17.183 23.7881C15.0137 26.2114 13.5676 29.4555 12.9032 33.4618C12.8835 33.5399 12.8835 33.6181 12.8641 33.6768V33.7355C12.5318 37.4876 11.4961 42.4907 10.1672 46.7705C8.93595 50.7181 7.66576 53.4542 6.68863 54.275C6.37595 54.5486 6.16091 54.92 6.12183 55.3499C6.08274 55.7604 6.21961 56.1707 6.47359 56.503C6.74719 56.8157 7.11856 57.0307 7.5485 57.0698C7.95896 57.1089 8.36929 56.9722 8.70158 56.718C10.6754 55.0765 12.3561 50.3861 13.1769 47.7283C14.5839 43.2139 15.6589 37.9569 16.0106 34.0093C16.5774 30.6089 17.7694 27.8925 19.5283 25.9186C20.779 24.5115 22.2838 23.5344 24.0231 22.9872C25.6061 22.4791 27.3258 22.3619 29.0456 22.6549C31.1171 23.0067 33.0909 23.9057 34.5565 25.2345C37.0776 27.482 37.4294 30.6283 37.8006 33.9506C37.8593 34.4002 37.8984 34.8301 37.9375 35.1037C38.1134 36.628 38.2502 37.9569 38.387 39.2467C39.0905 46.0281 39.8332 53.0439 42.8232 59.6298C43.0774 60.2161 43.6636 60.5484 44.2499 60.5484C44.4649 60.5484 44.6798 60.5093 44.8949 60.4115C45.6766 60.0597 46.0283 59.1217 45.6766 58.34C42.8819 52.1642 42.1784 45.4219 41.4944 38.8946Z" fill="#5982AB"/>
<path d="M34.7521 35.9437C35.0453 33.0514 34.498 30.5304 33.1496 28.6347C32.3288 27.4621 31.2148 26.5632 29.925 26.0354C28.6938 25.5273 27.3454 25.3905 26.0556 25.625C24.3359 25.9377 22.8116 26.9148 21.7563 28.3609C21.1113 29.2404 20.5446 30.3348 20.0756 31.605C19.6261 32.8362 19.2352 34.2628 18.9225 35.8849C18.688 37.1161 18.5317 38.2105 18.3948 39.2462C18.1407 41.1419 17.9258 42.8029 17.1441 45.0504C16.3624 47.2979 15.268 49.7602 13.8609 52.418C12.0239 55.8966 10.2846 58.4372 9.58106 59.3166C9.03387 59.981 9.13152 60.9778 9.7961 61.525C10.1284 61.7985 10.5387 61.9158 10.9492 61.8767C11.3596 61.8376 11.7505 61.6422 12.0045 61.3099C12.9816 60.1178 14.8968 57.1864 16.6361 53.9032C18.1019 51.1477 19.2744 48.5095 20.1147 46.0861C20.9942 43.5259 21.2482 41.6499 21.5218 39.676C21.6586 38.6989 21.7953 37.6827 22.0299 36.4905C22.3035 35.0444 22.6552 33.774 23.0461 32.7187C23.4174 31.7025 23.8474 30.8621 24.3164 30.2368C24.9027 29.4354 25.7235 28.9079 26.642 28.7515C27.3456 28.6147 28.0687 28.6928 28.7526 28.986C29.4758 29.2792 30.1206 29.8068 30.5896 30.4909C31.4886 31.7612 31.8403 33.5591 31.6254 35.6892C31.2346 39.5391 29.6907 45.1479 27.2674 51.4602C24.7073 58.1634 21.4827 64.7884 19.5871 67.1922C19.0594 67.8762 19.1766 68.8533 19.8607 69.4005C20.1539 69.6156 20.4861 69.7328 20.8184 69.7328C21.2874 69.7328 21.7564 69.5178 22.0496 69.1269C24.1407 66.4495 27.4824 59.6487 30.1794 52.5742C32.7197 45.9495 34.3222 40.0671 34.7521 35.9437Z" fill="#5982AB"/>
<path d="M48.1975 39.774C47.8848 34.986 47.5525 30.0222 45.8915 26.2895C45.5397 25.5078 44.6017 25.1364 43.82 25.4882C43.0383 25.84 42.6669 26.778 43.0187 27.5597C44.4453 30.7647 44.758 35.4354 45.0511 39.9694C45.3834 44.9528 45.6961 49.6627 47.4353 52.8482C47.6307 53.2195 47.963 53.4931 48.3733 53.6104C48.5297 53.6495 48.6665 53.6691 48.8229 53.6691C49.077 53.6691 49.331 53.6104 49.5655 53.4737C49.9369 53.2782 50.2105 52.9459 50.3277 52.5356C50.445 52.1252 50.4059 51.7148 50.1908 51.3435C48.7838 48.7637 48.5102 44.4057 48.1975 39.774Z" fill="#5982AB"/>
<path d="M28.518 33.5399C28.5376 33.1294 28.4007 32.7191 28.1075 32.4064C27.8339 32.0937 27.4431 31.9178 27.0131 31.8983C26.1533 31.8592 25.4107 32.5237 25.3716 33.3835C25.0784 39.2268 23.8276 45.1679 21.7757 50.5811C19.7628 55.9163 17.0268 60.5283 13.685 64.2806C13.1182 64.9256 13.1573 65.9222 13.8219 66.5085C14.1151 66.7821 14.4863 66.8993 14.8577 66.8993C15.2876 66.8993 15.7176 66.7234 16.0302 66.3716C19.6261 62.3262 22.5576 57.3819 24.7267 51.695C26.8959 45.9691 28.2053 39.6958 28.518 33.5399Z" fill="#5982AB"/>
<path d="M37.5662 52.1054L37.4099 51.3237C37.3121 50.7569 36.9213 50.2879 36.3741 50.0925C35.9832 49.9556 35.5533 49.9752 35.1624 50.1512C34.7911 50.3271 34.498 50.6593 34.3611 51.0501L34.3026 51.226C33.2082 54.3137 32.1333 57.3428 30.7849 60.372C29.2801 63.792 27.6385 66.8015 25.782 69.5571C25.5475 69.9089 25.4693 70.3193 25.5475 70.7297C25.6257 71.1401 25.8602 71.4919 26.2119 71.7264C26.4855 71.9023 26.7787 72 27.0914 72C27.5995 72 28.0882 71.7655 28.4008 71.3159C30.3551 68.4237 32.0748 65.2576 33.6773 61.6423C34.2832 60.2743 34.8695 58.8282 35.4948 57.167C36.1789 59.8248 37.1169 62.6976 38.9149 65.8831C39.1103 66.2545 39.4621 66.5085 39.8529 66.6257C40.2634 66.743 40.6737 66.6844 41.0451 66.4889C41.4164 66.2738 41.6704 65.9417 41.7877 65.5508C41.9049 65.1404 41.8464 64.73 41.6508 64.3587C39.2665 60.0789 38.4457 56.2095 37.5662 52.1054Z" fill="#5982AB"/>
</svg>
